<svg xmlns="http://www.w3.org/2000/svg" viewBox="0 0 24 22.255">
  <defs>
    <style>
      .cls-1 {
        fill: rgba(24,41,78,0.55);
      }
    </style>
  </defs>
  <path id="map" class="cls-1" d="M23.818,2.082a.433.433,0,0,0-.393-.06L15.689,4.6l-7.3-1.717a.379.379,0,0,0-.055,0,.444.444,0,0,0-.14,0L.342,4.629A.436.436,0,0,0,0,5.055V23.818a.437.437,0,0,0,.436.436.466.466,0,0,0,.095-.01L8.3,22.518l7.332,1.294a.406.406,0,0,0,.076.007.438.438,0,0,0,.154-.029h0l7.855-3.055A.438.438,0,0,0,24,20.327V2.437A.436.436,0,0,0,23.818,2.082ZM.873,5.4,7.855,3.853v17.87L.873,23.274ZM8.727,3.86,15.273,5.4V22.861L8.727,21.707Zm14.4,16.169-6.982,2.715V5.369l6.982-2.327Z" transform="translate(0 -2)"/>
</svg>
