<svg id="outline-transfer_within_a_station-24px" xmlns="http://www.w3.org/2000/svg" viewBox="0 0 27 25">
  <defs>
    <style>
      .cls-1 {
        fill: none;
      }

      .cls-2 {
        fill: #14213d;
      }
    </style>
  </defs>
  <path id="Path_21" data-name="Path 21" class="cls-1" d="M0,0H27V25H0Z"/>
  <path id="Path_22" data-name="Path 22" class="cls-2" d="M18.663,16.151V14.32L15.8,16.936l2.863,2.616V17.721H25v-1.57ZM22.137,20.6H15.8v1.57h6.337V24L25,21.384l-2.863-2.616ZM10.625,5.686a2.21,2.21,0,0,0,2.3-2.093,2.21,2.21,0,0,0-2.3-2.093,2.21,2.21,0,0,0-2.3,2.093A2.21,2.21,0,0,0,10.625,5.686ZM6.312,9.244,3.15,24H5.565l2.012-8.372,2.472,2.093V24h2.3V16.1L9.992,13.953l.69-3.14a8.346,8.346,0,0,0,6.268,2.721V11.442a6.037,6.037,0,0,1-5-2.564L10.855,7.2A2.3,2.3,0,0,0,8.9,6.209a2.507,2.507,0,0,0-.863.157L2,8.616v4.919H4.3V10.029l2.012-.785"/>
</svg>
